<svg xmlns="http://www.w3.org/2000/svg" height="48" viewBox="0 96 960 960" width="48"><path d="M317 833V666l135 83-135 84Zm205-370q-40 0-68-27.865t-28-67.841q0-39.059 28-67.676Q482 271 522 271h31v22h-31q-31.917 0-52.958 21.194Q448 335.387 448 367.235 448 400 469.125 420.5T522 441h31v22h-31Zm129 0v-22h31q31.917 0 52.958-20.735 21.042-20.736 21.042-53Q756 335 734.875 314T682 293h-31v-22h31q40 0 68 28.323 28 28.324 28 67.883t-28 67.676Q722 463 682 463h-31Zm-110-85v-22h122v22H541Zm75 234v-41h192q14 0 23-9t9-23V253q0-14-9-23t-23-9H393q-14 0-23 9t-9 23v288h-35V253q0-26.5 19.75-46.75T393 186h415q26.5 0 46.75 20.25T875 253v292q0 27.5-20.25 47.25T808 612H616ZM153 965q-27.5 0-47.25-19.75T86 898V600q0-26.5 19.75-46.75T153 533h415q26.5 0 46.75 20.25T635 600v298q0 27.5-20.25 47.25T568 965H153Zm0-35h415q14 0 23-9t9-23V600q0-14-9-23t-23-9H153q-14 0-23 9t-9 23v298q0 14 9 23t23 9Zm447-534ZM360 749Z" fill="#000000"/></svg>