<svg xmlns="http://www.w3.org/2000/svg" height="48" viewBox="0 96 960 960" width="48" fill="#000000"><path d="M119 484V363q0-27.5 19.75-47.25T186 296h588q27.5 0 47.25 19.75T841 363v121h-35V363q0-12-10-22t-22-10H186q-12 0-22 10t-10 22v121h-35Zm67 372q-27.5 0-47.25-19.112Q119 817.775 119 790V667h35v122q0 12 10 22t22 10h588q12 0 22-10t10-22V667h35v123q0 27.775-19.75 46.888Q801.5 856 774 856H186Zm213.809-103q4.739 0 9.065-2.5T416 744l144-289 64 129q2.75 4 6.976 6.5T640 593h201v-35H651l-75-150q-1.89-3.05-5.67-5.525-3.78-2.475-9.639-2.475-5.691 0-10.291 2.475-4.6 2.475-6.4 5.525L400 696l-64-128q-2.583-4-6.863-7-4.279-3-9.137-3H119v35h190l75 151q2.723 4 6.896 6.5t8.913 2.5ZM480 576Z"/></svg>