<svg xmlns="http://www.w3.org/2000/svg" height="48" viewBox="0 96 960 960" width="48" fill="#000000"><path d="M278 779q-84.583 0-143.792-59.191Q75 660.618 75 576.059t59.208-143.809Q193.417 373 278 373h404q84.583 0 143.792 59.191Q885 491.382 885 575.941T825.792 719.75Q766.583 779 682 779H278Zm.286-35H682q68.875 0 118.438-49.001Q850 645.998 850 575.911q0-70.086-49.562-118.999Q750.875 408 682 408H278.286q-70.168 0-119.227 48.965Q110 505.929 110 575.965 110 646 159.059 695t119.227 49Zm-.227-67q42.524 0 71.733-29.15Q379 618.701 379 576.059q0-42.642-29.15-71.851Q320.701 475 278.176 475q-42.524 0-72.35 29.15Q176 533.299 176 575.941q0 42.642 29.767 71.851Q235.534 677 278.059 677ZM480 576Z"/></svg>