<svg xmlns="http://www.w3.org/2000/svg" height="48" viewBox="0 -960 960 960" width="48"><path d="M186-116q-27.5 0-47.25-19.75T119-183v-393q0-27.5 19.75-47.25T186-643h222v-167q0-13.5 10.777-24.25Q429.555-845 443.504-845h73.272q13.949 0 24.586 10.75Q552-823.5 552-810v167h222q27.5 0 47.25 19.75T841-576v393q0 27.5-19.75 47.25T774-116H186Zm0-35h588q14 0 23-9t9-23v-393q0-14-9-23t-23-9H548v49q-7 9-14 12t-17.411 3h-73.178Q433-544 426-547q-7-3-14-12v-49H186q-14 0-23 9t-9 23v393q0 14 9 23t23 9Zm62-112h217v-4q0-14.478-7.5-26.239Q450-305 437.872-309.692q-24.975-9.654-44.423-13.481Q374-327 357-327q-17 0-37.5 4.5T276-310q-13 6-20.5 17.022Q248-281.957 248-267v4Zm315-64h169v-33H563v33Zm-205.765-33q19.206 0 32.486-13.515Q403-387.029 403-406.265q0-19.235-13.044-32.985T357.706-453q-19.206 0-32.956 13.473Q311-426.054 311-406.235q0 18.735 13.515 32.485Q338.029-360 357.235-360ZM563-416h169v-34H563v34ZM443-579h74v-231h-74v231Zm37 199Z" fill="#000000"/></svg>