<svg xmlns="http://www.w3.org/2000/svg" height="48" viewBox="0 96 960 960" width="48" fill="#000000"><path d="m398 709 82-65 80 63-31-99 83-65h-99l-33-100-33 100h-99l82 65-32 101ZM151 859q-14 0-24.5-10.5T116 824V696q36-20 59.5-49.5T199 576q0-42-23.5-72T116 455V327q0-14 10.5-24.5T151 292h659q14 0 24.5 10.5T845 327v128q-36 19-59.5 49T762 576q0 41 23.5 70.5T845 696v128q0 14-10.5 24.5T810 859H151Zm0-35h659V719q-38-22-60.5-60.5T727 575.648q0-44.352 22.5-82.5t60.5-61.503V327H151v105q38.925 23.463 60.962 61.232Q234 531 234 575.5t-22 83Q190 697 151 719v105Zm330-249Z"/></svg>