<svg xmlns="http://www.w3.org/2000/svg" height="48" viewBox="0 96 960 960" width="48"><path d="M223 900q-27.5 0-47.25-19.75T156 833V319q0-27.5 19.75-47.25T223 252h514q27.5 0 47.25 19.75T804 319v514q0 27.5-19.75 47.25T737 900H223Zm0-35h514q14 0 23-9t9-23V372H191v461q0 14 9 23t23 9Zm257.16-137q-60.768 0-110.969-30.82Q318.99 666.359 292 616.004q26.99-50.799 77.03-82.401Q419.071 502 479.84 502q60.768 0 110.969 31.598Q641.01 565.197 669 616.151q-27.99 50.511-78.03 81.18Q540.929 728 480.16 728Zm.273-38q42.216 0 80.171-19.265Q598.559 651.47 628 616q-29.102-35.35-67.54-55.675Q522.021 540 479.686 540t-80.459 20.325Q361.102 580.65 333 616q28.536 35.47 66.877 54.735Q438.217 690 480.433 690ZM480 616Zm.294 42Q497 658 509.5 645.206t12.5-29.5Q522 599 509.206 586.5t-29.5-12.5Q463 574 450.5 586.794t-12.5 29.5Q438 633 450.794 645.5t29.5 12.5Z" fill="#000000"/></svg>