<svg xmlns="http://www.w3.org/2000/svg" height="48" width="48"><path d="M13.2 42.5q-1.4 0-2.375-.975-.975-.975-.975-2.375v-17.5q0-1.45.975-2.4t2.375-.95h2.85v-4.25q0-3.4 2.3-5.7 2.3-2.3 5.65-2.3 3.35 0 5.65 2.3 2.3 2.3 2.3 5.7v4.25h2.85q1.4 0 2.375.95.975.95.975 2.4v17.5q0 1.4-.975 2.375-.975.975-2.375.975Zm0-1.75h21.6q.7 0 1.15-.45.45-.45.45-1.15v-17.5q0-.7-.45-1.15-.45-.45-1.15-.45H13.2q-.7 0-1.15.45-.45.45-.45 1.15v17.5q0 .7.45 1.15.45.45 1.15.45Zm10.8-7.3q1.25 0 2.125-.875T27 30.45q0-1.2-.875-2.1-.875-.9-2.125-.9t-2.125.9Q21 29.25 21 30.5q0 1.2.875 2.075.875.875 2.125.875ZM17.8 18.3h12.4v-4.25q0-2.6-1.8-4.425Q26.6 7.8 24 7.8q-2.6 0-4.4 1.825-1.8 1.825-1.8 4.425Zm-6.2 22.45v-20.7 20.7Z" fill="#000000"/></svg>