<svg xmlns="http://www.w3.org/2000/svg" height="48" viewBox="0 96 960 960" width="48" fill="#000000"><path d="M463 616V244h35v372h-35Zm16.829 284Q412 900 352.977 874.295q-59.022-25.704-102.795-68.977t-68.977-102.795Q156 643 156 576.364 156 503 187 438t87-110l23 23q-50 41-78 100.039-28 59.04-28 124.939 0 118.779 84.674 203.901Q360.348 865 480.179 865q120.178 0 204.5-85.121Q769 694.757 769 575.978 769 509 741.5 450T664 351l23-23q56 46 86.5 110.382Q804 502.763 804 576.25q0 66.75-25 126.25t-69.5 103q-44.5 43.5-103.693 69T479.829 900Z"/></svg>