<svg xmlns="http://www.w3.org/2000/svg" height="48" viewBox="0 96 960 960" width="48"><path d="M710 1026q81 0 148-64t72-157h-41q-7 72-57.5 123T710 984v42ZM31 346h41q7-71 57-122.5T251 167v-41q-90 5-152.5 68T31 346Zm182 522q-90-90-89.5-197T213 472l141-139q19-19 43-19t43 19q10 10 12.5 27t-6.5 34l140-141q20-19 44.5-18.5T674 253q10 11 12 25.5t-5 29.5l43-43q15-20 41-18.5t47 22.5q21 20 16.5 44T799 364q11-6 27-2.5t29 18.5q17 19 18 43t-14 39l-74 74q17-10 33.5-11t31.5 13q18 19 19 43.5T851 625L609 868q-92 89-199 89.5T213 868Zm26-26q39 40 83 60.5t89 20.5q45 0 89-20.5t83-60.5l242-241q9-8 9-18.5t-9-18.5q-8-9-18-9t-18 9L628 723l-41-38 243-243q9-8 9-18.5t-9-18.5q-8-9-18.5-9t-18.5 9L578 620l-38-41 247-248q9-8 8-18.5t-8-18.5q-9-9-19-9t-18 9L502 541l-41-38 189-188q8-8 7.5-18.5T650 278q-10-8-20-8.5t-18 8.5L372 517q24 52 21.5 107T356 735l-35-33q25-50 24-101t-33-104l103-104q8-8 8-18t-8-17q-8-9-18.5-9t-18.5 9L239 498q-40 39-60.5 83T158 670q0 45 20.5 89t60.5 83Z" fill="#000000"/></svg>