<?xml version="1.0" encoding="utf-8"?>
<!-- Generator: Adobe Illustrator 27.0.0, SVG Export Plug-In . SVG Version: 6.00 Build 0)  -->
<svg version="1.1" id="Layer_1" xmlns="http://www.w3.org/2000/svg" xmlns:xlink="http://www.w3.org/1999/xlink" x="0px" y="0px"
	 viewBox="0 0 754 754" style="enable-background:new 0 0 754 754;" xml:space="preserve">
<style type="text/css">
	.st0{opacity:0;fill:#FFFFFF;}
	.st1{fill:none;stroke:#000000;stroke-width:20;stroke-linecap:round;stroke-linejoin:round;stroke-miterlimit:10;}
</style>
<rect class="st0" width="754" height="754"/>
<path class="st1" d="M359.1,117.8L135.5,520.1c-6.6,11.9,3.1,26,17.9,26h447.1c14.9,0,24.5-14,17.9-26L394.9,117.8
	C387.5,104.6,366.5,104.6,359.1,117.8z"/>
<path class="st1" d="M377,108.4v289.2L136,536.8c-3-4.9-3.6-11-0.4-16.7l223.5-401.8C362.8,111.7,369.9,108.4,377,108.4z"/>
<path class="st1" d="M618,536.8L377,397.6V108.4c7.1,0,14.2,3.3,17.9,9.9l223.5,401.8C621.6,525.8,621.1,531.9,618,536.8z"/>
</svg>
